<?xml version="1.0" standalone="no"?>
<!DOCTYPE svg PUBLIC "-//W3C//DTD SVG 20010904//EN"
 "http://www.w3.org/TR/2001/REC-SVG-20010904/DTD/svg10.dtd">
<svg version="1.0" xmlns="http://www.w3.org/2000/svg"
 width="300.000000pt" height="300.000000pt" viewBox="0 0 300.000000 300.000000"
 preserveAspectRatio="xMidYMid meet">

<g transform="translate(0.000000,300.000000) scale(0.100000,-0.100000)"
fill="#000000" stroke="none">
<path d="M167 2833 c-4 -3 -7 -122 -7 -263 0 -227 2 -259 17 -271 13 -11 68
-14 260 -14 l245 0 19 24 c17 21 19 42 19 255 0 193 -3 235 -16 254 -15 22
-18 22 -273 22 -142 0 -261 -3 -264 -7z m437 -73 l26 -10 0 -179 c0 -168 -1
-181 -19 -191 -29 -15 -344 -13 -359 2 -8 8 -12 65 -12 190 0 158 2 178 18
187 22 13 312 14 346 1z"/>
<path d="M322 2568 l3 -113 99 -3 c65 -2 103 1 112 9 11 9 14 35 12 113 l-3
101 -113 3 -113 3 3 -113z"/>
<path d="M970 2800 l0 -40 -80 0 -80 0 0 -240 0 -240 40 0 40 0 0 40 0 40 40
0 40 0 0 -40 0 -40 40 0 40 0 0 -45 0 -45 80 0 80 0 0 -40 0 -40 -40 0 -40 0
0 -80 0 -80 40 0 40 0 0 80 0 80 40 0 40 0 0 -40 0 -40 40 0 40 0 0 40 0 40
-40 0 -40 0 0 85 0 85 40 0 40 0 0 -45 0 -45 40 0 40 0 0 45 0 45 45 0 45 0 0
40 0 40 -45 0 -45 0 0 -40 0 -40 -40 0 -40 0 0 80 0 80 40 0 40 0 0 40 0 40
-40 0 -40 0 0 -40 0 -40 -80 0 -80 0 0 40 0 40 -40 0 -40 0 0 40 0 40 -40 0
-40 0 0 -40 0 -40 -40 0 -40 0 0 120 0 120 40 0 40 0 0 40 0 40 -40 0 -40 0 0
-40z m160 -320 l0 -40 40 0 40 0 0 -40 0 -40 40 0 40 0 0 -40 0 -40 -40 0 -40
0 0 40 0 40 -40 0 -40 0 0 -40 0 -40 -40 0 -40 0 0 120 0 120 40 0 40 0 0 -40z"/>
<path d="M1130 2760 l0 -80 40 0 40 0 0 -40 0 -40 40 0 40 0 0 40 0 40 40 0
40 0 0 40 0 40 40 0 40 0 0 -40 0 -40 45 0 45 0 0 40 0 40 40 0 40 0 0 40 0
40 -125 0 -125 0 0 -40 0 -40 -40 0 -40 0 0 40 0 40 -80 0 -80 0 0 -80z"/>
<path d="M1700 2800 l0 -40 40 0 40 0 0 -40 0 -40 40 0 40 0 0 -40 0 -40 40 0
40 0 0 -40 0 -40 -80 0 -80 0 0 40 0 40 -40 0 -40 0 0 40 0 40 -40 0 -40 0 0
-120 0 -120 160 0 160 0 0 -80 0 -80 -40 0 -40 0 0 40 0 40 -40 0 -40 0 0 -85
0 -85 -40 0 -40 0 0 -40 0 -40 40 0 40 0 0 40 0 40 80 0 80 0 0 -80 0 -80 -40
0 -40 0 0 -40 0 -40 40 0 40 0 0 -40 0 -40 -40 0 -40 0 0 -40 0 -40 -40 0
c-32 0 -40 -4 -40 -19 0 -10 8 -29 19 -42 29 -37 59 -101 66 -142 l7 -37 74 0
74 0 0 40 0 40 40 0 40 0 0 40 0 40 -40 0 -40 0 0 80 0 80 40 0 40 0 0 -40 0
-40 40 0 40 0 0 80 0 80 45 0 45 0 0 -80 0 -80 120 0 120 0 0 -40 0 -40 40 0
40 0 0 -80 0 -80 40 0 40 0 0 40 0 40 40 0 40 0 0 -85 0 -85 40 0 40 0 0 165
0 165 -80 0 -80 0 0 40 0 40 80 0 80 0 0 80 0 80 -80 0 -80 0 0 40 0 40 40 0
40 0 0 40 0 40 -200 0 -200 0 0 -80 0 -80 -85 0 -85 0 0 -40 0 -40 -80 0 -80
0 0 120 0 120 40 0 40 0 0 -40 0 -40 85 0 85 0 0 40 0 40 -45 0 -45 0 0 85 0
85 -40 0 -40 0 0 80 0 80 -40 0 -40 0 0 40 0 40 40 0 40 0 0 80 0 80 40 0 40
0 0 40 0 40 -40 0 -40 0 0 -40 0 -40 -40 0 -40 0 0 40 0 40 -80 0 -80 0 0 -40
0 -40 -40 0 -40 0 0 40 0 40 -40 0 -40 0 0 -40z m320 -80 l0 -40 -40 0 -40 0
0 40 0 40 40 0 40 0 0 -40z m0 -240 l0 -40 -40 0 -40 0 0 40 0 40 40 0 40 0 0
-40z m80 -160 l0 -40 -40 0 -40 0 0 40 0 40 40 0 40 0 0 -40z m410 -250 l0
-40 40 0 40 0 0 -40 0 -40 40 0 40 0 0 -40 0 -40 -120 0 -120 0 0 40 0 40 -40
0 -40 0 0 40 0 40 40 0 40 0 0 40 0 40 40 0 40 0 0 -40z m-490 -400 l0 -40
-40 0 -40 0 0 40 0 40 40 0 40 0 0 -40z"/>
<path d="M2430 1990 l0 -40 40 0 40 0 0 40 0 40 -40 0 -40 0 0 -40z"/>
<path d="M2282 2828 c-17 -17 -17 -519 0 -536 9 -9 80 -12 258 -12 238 0 248
1 266 21 18 20 19 39 19 264 0 190 -3 245 -14 258 -12 15 -43 17 -265 17 -183
0 -255 -3 -264 -12z m448 -87 c15 -29 13 -344 -2 -359 -8 -8 -65 -12 -190 -12
-165 0 -178 1 -188 19 -13 25 -13 311 0 345 l10 26 179 0 c168 0 181 -1 191
-19z"/>
<path d="M2437 2673 c-4 -3 -7 -55 -7 -115 l0 -109 113 3 112 3 3 99 c2 64 -1
103 -9 112 -8 10 -38 14 -109 14 -53 0 -100 -3 -103 -7z"/>
<path d="M1620 2320 l0 -40 40 0 40 0 0 40 0 40 -40 0 -40 0 0 -40z"/>
<path d="M320 2150 l0 -40 -80 0 -80 0 0 -40 0 -40 80 0 80 0 0 40 0 40 40 0
40 0 0 40 0 40 -40 0 -40 0 0 -40z"/>
<path d="M560 2150 l0 -40 -40 0 -40 0 0 -40 0 -40 -40 0 -40 0 0 -80 0 -80
-40 0 -40 0 0 40 0 40 -40 0 -40 0 0 -40 0 -40 40 0 40 0 0 -80 0 -80 40 0 40
0 0 -80 0 -80 40 0 40 0 0 -45 0 -45 40 0 40 0 0 -40 0 -40 -40 0 -40 0 0 -40
0 -40 120 0 120 0 0 -40 0 -40 -80 0 -80 0 0 -40 0 -40 -80 0 -80 0 0 -40 0
-40 -120 0 -120 0 0 -40 0 -40 80 0 80 0 0 -40 0 -40 -80 0 -80 0 0 -40 0 -40
120 0 120 0 0 120 0 120 80 0 80 0 0 -120 0 -120 80 0 80 0 0 40 0 40 -40 0
-40 0 0 40 0 40 125 0 125 0 0 80 0 80 40 0 40 0 0 -80 0 -80 80 0 80 0 0 -40
0 -40 -40 0 -40 0 0 -40 0 -40 40 0 40 0 0 40 0 40 40 0 40 0 0 40 0 40 40 0
40 0 0 -40 0 -40 40 0 40 0 0 -40 0 -40 -80 0 -80 0 0 -45 0 -45 -40 0 -40 0
0 -40 0 -40 -40 0 -40 0 0 40 0 40 -80 0 -80 0 0 45 0 45 40 0 40 0 0 40 0 40
-80 0 -80 0 0 -165 0 -165 40 0 40 0 0 40 0 40 40 0 40 0 0 -40 0 -40 40 0 40
0 0 -40 0 -40 -80 0 -80 0 0 -40 0 -40 -40 0 -40 0 0 -40 0 -40 40 0 40 0 0
-80 0 -80 80 0 80 0 0 40 0 40 40 0 40 0 0 40 0 40 40 0 40 0 0 -80 0 -80 80
0 80 0 0 40 0 40 40 0 40 0 0 -40 0 -40 85 0 85 0 0 40 0 40 80 0 80 0 0 -40
0 -40 80 0 80 0 0 40 0 40 40 0 40 0 0 40 0 40 40 0 40 0 0 -80 0 -80 85 0 85
0 0 80 0 80 -45 0 -45 0 0 40 0 40 -80 0 -80 0 0 -40 0 -40 -40 0 -40 0 0 -40
0 -40 -40 0 -40 0 0 40 0 40 -40 0 -40 0 0 40 0 40 -40 0 -40 0 0 40 0 40 120
0 120 0 0 80 0 80 -80 0 -80 0 0 40 0 40 160 0 160 0 0 -120 0 -120 85 0 85 0
0 40 0 40 -45 0 -45 0 0 125 0 125 125 0 125 0 0 -45 0 -45 80 0 80 0 0 45 0
45 -40 0 -40 0 0 40 0 40 -40 0 -40 0 0 40 0 40 -40 0 -40 0 0 40 0 40 80 0
80 0 0 -40 0 -40 40 0 40 0 0 40 0 40 40 0 40 0 0 40 0 40 40 0 40 0 0 40 0
40 40 0 40 0 0 80 0 80 -40 0 -40 0 0 -40 0 -40 -40 0 -40 0 0 40 0 40 -40 0
-40 0 0 -80 0 -80 -40 0 -40 0 0 -40 0 -40 -40 0 -40 0 0 285 0 285 -40 0 -40
0 0 -80 0 -80 -40 0 -40 0 0 80 0 80 -45 0 -45 0 0 -125 0 -125 -40 0 -40 0 0
-40 0 -40 40 0 40 0 0 40 0 40 85 0 85 0 0 -40 0 -40 -40 0 -40 0 0 -40 0 -40
-85 0 -85 0 0 -80 0 -80 125 0 125 0 0 -40 0 -40 -40 0 -40 0 0 -80 0 -80
-125 0 -125 0 0 -40 0 -40 -40 0 -40 0 0 80 0 80 120 0 120 0 0 40 0 40 -80 0
-80 0 0 120 0 120 -40 0 -40 0 0 40 c0 40 0 40 -40 40 -37 0 -41 -3 -61 -42
-12 -24 -35 -60 -51 -80 l-30 -38 91 0 91 0 0 -120 0 -120 -40 0 -40 0 0 80 0
80 -80 0 -80 0 0 -80 0 -80 -40 0 -40 0 0 40 0 40 -40 0 c-37 0 -40 2 -40 29
0 27 -3 29 -47 35 -27 4 -119 9 -205 12 l-158 6 0 -41 0 -41 -40 0 -40 0 0 40
0 40 -40 0 -40 0 0 40 0 40 40 0 40 0 0 40 0 40 65 0 65 0 -20 40 c-19 38 -23
40 -65 40 l-45 0 0 40 0 40 -80 0 -80 0 0 -40 0 -40 -40 0 -40 0 0 40 0 40
-45 0 -45 0 0 45 0 45 85 0 85 0 0 40 0 40 -40 0 -40 0 0 40 0 40 80 0 80 0 0
-40 0 -40 40 0 40 0 0 40 0 40 40 0 40 0 1 -62 c0 -45 3 -56 8 -38 13 42 42
93 78 138 31 38 32 42 14 42 -18 0 -21 6 -21 40 l0 40 -40 0 -40 0 0 -40 0
-40 -40 0 -40 0 0 40 0 40 -40 0 -40 0 0 40 0 40 -40 0 -40 0 0 -80 0 -80 -85
0 -85 0 0 40 0 40 45 0 45 0 0 40 0 40 -45 0 -45 0 0 40 0 40 45 0 45 0 0 40
0 40 40 0 40 0 0 40 0 40 -165 0 -165 0 0 -40z m160 -80 l0 -40 -80 0 -80 0 0
-40 0 -40 80 0 80 0 0 -40 0 -40 -80 0 -80 0 0 -40 0 -40 80 0 80 0 0 -40 0
-40 -40 0 -40 0 0 -40 0 -40 40 0 40 0 0 -40 0 -40 -40 0 -40 0 0 -45 0 -45
40 0 40 0 0 -40 0 -40 45 0 45 0 0 -40 0 -40 40 0 40 0 0 40 0 40 80 0 80 0 0
-40 0 -40 -40 0 -40 0 0 -40 0 -40 -80 0 -80 0 0 -80 0 -80 -85 0 -85 0 0 40
0 40 40 0 40 0 0 40 0 40 45 0 45 0 0 40 0 40 -45 0 -45 0 0 40 0 40 -40 0
-40 0 0 40 0 40 -40 0 -40 0 0 45 0 45 40 0 40 0 0 40 0 40 -40 0 -40 0 0 80
0 80 -40 0 -40 0 0 120 0 120 40 0 40 0 0 40 0 40 80 0 80 0 0 -40z m1950
-890 l0 -40 -40 0 -40 0 0 40 0 40 40 0 40 0 0 -40z m-1460 -160 l0 -40 -40 0
-40 0 0 40 0 40 40 0 40 0 0 -40z m160 0 l0 -40 -40 0 -40 0 0 40 0 40 40 0
40 0 0 -40z m250 -80 l0 -40 80 0 80 0 0 40 0 40 40 0 40 0 0 -40 0 -40 -40 0
-40 0 0 -40 0 -40 -80 0 -80 0 0 40 0 40 -40 0 -40 0 0 -85 0 -85 -85 0 -85 0
0 -40 0 -40 40 0 40 0 0 -40 0 -40 -80 0 -80 0 0 -40 0 -40 -40 0 -40 0 0 -40
0 -40 -40 0 -40 0 0 -40 0 -40 -40 0 -40 0 0 -40 0 -40 -40 0 -40 0 0 40 0 40
-40 0 -40 0 0 40 0 40 80 0 80 0 0 40 0 40 40 0 40 0 0 40 0 40 40 0 40 0 0
40 0 40 40 0 40 0 0 40 0 40 40 0 40 0 0 45 0 45 40 0 40 0 0 80 0 80 85 0 85
0 0 -40z m0 -370 l0 -80 -40 0 -40 0 0 80 0 80 40 0 40 0 0 -80z m160 40 l0
-40 -40 0 -40 0 0 40 0 40 40 0 40 0 0 -40z m-330 -160 l0 -40 -40 0 -40 0 0
-40 0 -40 -40 0 -40 0 0 40 0 40 40 0 40 0 0 40 0 40 40 0 40 0 0 -40z m250
-80 l0 -40 -40 0 -40 0 0 -40 0 -40 -40 0 -40 0 0 80 0 80 80 0 80 0 0 -40z"/>
<path d="M970 2070 l0 -40 40 0 40 0 0 40 0 40 -40 0 -40 0 0 -40z"/>
<path d="M1450 2070 l0 -40 45 0 45 0 0 40 0 40 -45 0 -45 0 0 -40z"/>
<path d="M1290 1911 l0 -39 245 0 245 -1 0 40 0 39 -245 0 -245 0 0 -39z"/>
<path d="M1450 1820 c-161 -26 -271 -156 -271 -320 0 -184 137 -321 321 -321
140 0 259 83 306 212 20 56 20 162 0 218 -52 144 -205 235 -356 211z m78 -172
c3 -27 5 -28 63 -28 33 0 59 -4 59 -10 0 -6 -27 -10 -60 -10 -53 0 -60 -2 -60
-19 0 -17 8 -20 49 -23 l49 -3 -14 -40 c-8 -22 -16 -44 -17 -49 -1 -5 39 -22
88 -39 50 -16 91 -31 93 -32 9 -7 -31 -66 -41 -62 -7 3 -49 22 -95 43 l-82 37
-23 -21 c-51 -48 -142 -66 -196 -37 -32 16 -41 33 -41 74 0 59 68 85 170 65
68 -14 74 -13 85 24 6 22 5 22 -84 22 -92 0 -127 16 -48 22 29 2 42 8 42 18 0
11 -14 16 -57 18 -32 2 -58 7 -58 12 0 5 26 10 58 12 54 3 57 4 60 31 3 24 7
28 30 25 21 -2 28 -9 30 -30z"/>
<path d="M1336 1457 c-26 -19 -17 -59 17 -75 39 -19 90 -8 130 28 l32 29 -37
15 c-45 19 -118 21 -142 3z"/>
<path d="M160 1670 l0 -120 40 0 40 0 0 120 0 120 -40 0 -40 0 0 -120z"/>
<path d="M240 1420 l0 -40 -40 0 -40 0 0 -80 0 -80 40 0 40 0 0 -40 0 -40 40
0 40 0 0 40 0 40 40 0 40 0 0 40 0 40 -40 0 -40 0 0 80 0 80 -40 0 -40 0 0
-40z m80 -160 l0 -40 -40 0 -40 0 0 40 0 40 40 0 40 0 0 -40z"/>
<path d="M2670 940 l0 -40 40 0 40 0 0 40 0 40 -40 0 -40 0 0 -40z"/>
<path d="M172 718 c-9 -9 -12 -81 -12 -264 0 -250 0 -253 22 -268 19 -13 61
-16 256 -16 l233 0 24 25 25 24 0 236 c0 144 -4 244 -10 256 -10 18 -24 19
-268 19 -187 0 -261 -3 -270 -12z m458 -87 c13 -25 13 -311 0 -345 l-10 -26
-179 0 c-168 0 -181 1 -191 19 -15 29 -13 344 2 359 8 8 65 12 190 12 165 0
178 -1 188 -19z"/>
<path d="M327 563 c-4 -3 -7 -50 -7 -103 0 -71 4 -101 14 -109 9 -8 48 -11
112 -9 l99 3 3 113 3 112 -109 0 c-60 0 -112 -3 -115 -7z"/>
<path d="M2430 610 l0 -40 -40 0 -40 0 0 -40 0 -40 40 0 40 0 0 -120 0 -120
-40 0 -40 0 0 -40 0 -40 40 0 40 0 0 40 0 40 40 0 40 0 0 -40 0 -40 40 0 40 0
0 40 0 40 40 0 40 0 0 -40 0 -40 80 0 80 0 0 120 0 120 -40 0 -40 0 0 40 0 40
-80 0 -80 0 0 40 0 40 -40 0 -40 0 0 40 0 40 -40 0 -40 0 0 -40z m160 -160 l0
-40 40 0 40 0 0 -40 0 -40 40 0 40 0 0 -40 0 -40 -40 0 -40 0 0 40 0 40 -40 0
-40 0 0 -40 0 -40 -40 0 -40 0 0 40 0 40 40 0 40 0 0 40 0 40 -40 0 -40 0 0
40 0 40 40 0 40 0 0 -40z"/>
<path d="M2670 610 l0 -40 40 0 40 0 0 40 0 40 -40 0 -40 0 0 -40z"/>
</g>
</svg>
