<?xml version="1.0" standalone="no"?>
<!DOCTYPE svg PUBLIC "-//W3C//DTD SVG 20010904//EN"
 "http://www.w3.org/TR/2001/REC-SVG-20010904/DTD/svg10.dtd">
<svg version="1.0" xmlns="http://www.w3.org/2000/svg"
 width="300.000000pt" height="300.000000pt" viewBox="0 0 300.000000 300.000000"
 preserveAspectRatio="xMidYMid meet">

<g transform="translate(0.000000,300.000000) scale(0.100000,-0.100000)"
fill="#000000" stroke="none">
<path d="M147 2853 c-4 -3 -7 -111 -7 -239 l0 -234 24 -15 c21 -14 56 -16 236
-13 209 3 212 3 231 27 17 21 19 41 19 236 0 193 -2 213 -18 228 -16 15 -49
17 -249 17 -126 0 -233 -3 -236 -7z m411 -75 c13 -13 18 -291 6 -322 -5 -14
-30 -16 -174 -16 -144 0 -169 2 -174 16 -12 31 -7 309 6 322 8 8 60 12 168 12
108 0 160 -4 168 -12z"/>
<path d="M292 2712 c-9 -6 -12 -34 -10 -103 l3 -94 103 -3 103 -3 -3 103 -3
103 -90 3 c-49 1 -96 -2 -103 -6z"/>
<path d="M950 2825 c0 -34 -1 -35 -40 -35 l-40 0 0 -40 c0 -39 -1 -40 -35 -40
-34 0 -35 1 -35 40 0 39 -1 40 -35 40 -34 0 -35 -1 -35 -40 0 -39 1 -40 35
-40 l35 0 0 -70 0 -70 35 0 c33 0 35 2 35 35 l0 35 110 0 110 0 0 -35 0 -35
-70 0 -70 0 0 -40 0 -40 -40 0 -40 0 0 -70 0 -70 -35 0 -35 0 0 70 0 70 -35 0
-35 0 0 -110 0 -110 -150 0 -150 0 0 -35 c0 -33 -2 -35 -35 -35 -33 0 -35 -2
-35 -35 0 -33 -2 -35 -35 -35 l-35 0 0 -110 0 -110 -40 0 c-39 0 -40 1 -40 35
0 33 -2 35 -35 35 -33 0 -35 -2 -35 -35 0 -33 2 -35 35 -35 l35 0 0 -75 0 -75
75 0 75 0 0 75 0 75 35 0 35 0 0 -150 0 -150 40 0 40 0 0 40 c0 39 1 40 35 40
34 0 35 -1 35 -40 0 -39 1 -40 35 -40 33 0 35 -2 35 -35 0 -33 -2 -35 -35 -35
-33 0 -35 -2 -35 -35 0 -33 2 -35 35 -35 33 0 35 2 35 35 0 34 1 35 40 35 39
0 40 -1 40 -35 0 -33 2 -35 35 -35 33 0 35 -2 35 -35 l0 -35 -145 0 -145 0 0
-40 0 -40 -40 0 -40 0 0 40 c0 39 -1 40 -35 40 -33 0 -35 2 -35 35 l0 35 -75
0 -75 0 0 35 c0 34 1 35 40 35 39 0 40 1 40 35 0 33 2 35 35 35 34 0 35 1 35
40 0 39 -1 40 -35 40 -34 0 -35 -1 -35 -40 l0 -40 -40 0 c-39 0 -40 -1 -40
-35 0 -33 -2 -35 -35 -35 -33 0 -35 -2 -35 -35 0 -33 2 -35 35 -35 33 0 35 -2
35 -35 0 -33 -2 -35 -35 -35 -34 0 -35 -1 -35 -40 0 -39 1 -40 35 -40 33 0 35
-2 35 -35 l0 -35 75 0 75 0 0 35 c0 33 2 35 35 35 l35 0 0 -110 0 -110 -35 0
c-33 0 -35 -2 -35 -35 l0 -35 75 0 75 0 0 35 c0 33 2 35 35 35 33 0 35 -2 35
-35 0 -33 2 -35 35 -35 33 0 35 -2 35 -35 0 -33 -2 -35 -35 -35 -34 0 -35 -1
-35 -40 0 -39 -1 -40 -35 -40 l-35 0 0 -70 0 -70 70 0 70 0 0 35 0 35 75 0 75
0 0 -35 c0 -33 -2 -35 -35 -35 l-35 0 0 -150 0 -150 35 0 c33 0 35 -2 35 -35
l0 -35 110 0 110 0 0 35 0 35 110 0 110 0 0 75 0 75 75 0 75 0 0 -75 0 -75
-40 0 c-39 0 -40 -1 -40 -35 l0 -35 -70 0 -70 0 0 -35 c0 -33 2 -35 35 -35 34
0 35 -1 35 -40 l0 -40 -75 0 -75 0 0 40 0 40 -110 0 -110 0 0 -40 0 -40 110 0
110 0 0 -35 0 -35 75 0 75 0 0 35 c0 33 2 35 35 35 33 0 35 -2 35 -35 l0 -35
110 0 110 0 0 110 0 110 -70 0 -70 0 0 35 0 35 105 0 105 0 0 40 0 40 -70 0
-70 0 0 35 0 35 70 0 70 0 0 110 0 110 -35 0 c-33 0 -35 2 -35 35 0 33 2 35
35 35 34 0 35 1 35 40 l0 40 40 0 40 0 0 -40 c0 -39 1 -40 35 -40 33 0 35 -2
35 -35 0 -33 -2 -35 -35 -35 l-35 0 0 -75 0 -75 35 0 c33 0 35 -2 35 -35 0
-33 -2 -35 -35 -35 -33 0 -35 -2 -35 -35 0 -33 2 -35 35 -35 33 0 35 2 35 35
l0 35 75 0 75 0 0 75 0 75 35 0 35 0 0 -75 0 -75 35 0 35 0 0 75 0 75 40 0
c39 0 40 1 40 35 0 33 2 35 35 35 l35 0 0 -185 0 -185 -35 0 c-33 0 -35 -2
-35 -35 0 -33 2 -35 35 -35 33 0 35 2 35 35 l0 35 75 0 75 0 0 40 0 40 -40 0
-40 0 0 110 0 110 110 0 110 0 0 -40 0 -40 40 0 40 0 0 110 0 110 -40 0 -40 0
0 40 0 40 75 0 75 0 0 -150 0 -150 110 0 110 0 0 75 0 75 -35 0 c-33 0 -35 2
-35 35 0 34 -1 35 -40 35 l-40 0 0 40 c0 39 -1 40 -35 40 -33 0 -35 2 -35 35
0 33 2 35 35 35 l35 0 0 75 0 75 40 0 40 0 0 -110 0 -110 35 0 35 0 0 110 0
110 -35 0 -35 0 0 70 0 70 -40 0 -40 0 0 40 0 40 75 0 75 0 0 35 0 35 -75 0
-75 0 0 35 c0 34 1 35 40 35 39 0 40 1 40 35 0 34 -1 35 -40 35 l-40 0 0 40 0
40 75 0 75 0 0 35 0 35 -110 0 -110 0 0 -35 c0 -33 -2 -35 -35 -35 l-35 0 0
70 0 70 35 0 35 0 0 75 0 75 35 0 c33 0 35 -2 35 -35 0 -34 1 -35 40 -35 l40
0 0 -40 c0 -39 1 -40 35 -40 34 0 35 1 35 40 0 39 -1 40 -35 40 l-35 0 0 70 0
70 -75 0 -75 0 0 -35 0 -35 -75 0 -75 0 0 -75 0 -75 -35 0 -35 0 0 -70 0 -70
-35 0 -35 0 0 70 0 70 -75 0 -75 0 0 40 c0 39 1 40 35 40 33 0 35 2 35 35 0
34 1 35 40 35 39 0 40 -1 40 -35 0 -33 2 -35 35 -35 l35 0 0 145 0 145 35 0
35 0 0 -75 0 -75 40 0 40 0 0 75 0 75 -40 0 c-39 0 -40 1 -40 35 l0 35 -70 0
-70 0 0 -35 0 -35 -75 0 -75 0 0 -35 c0 -33 -2 -35 -35 -35 -33 0 -35 2 -35
35 l0 35 -110 0 -110 0 0 -35 c0 -33 2 -35 35 -35 34 0 35 -1 35 -40 0 -39 1
-40 35 -40 34 0 35 1 35 40 l0 40 40 0 40 0 0 -75 0 -75 35 0 c33 0 35 -2 35
-35 l0 -35 -110 0 -110 0 0 -75 0 -75 -35 0 -35 0 0 -145 0 -145 35 0 c33 0
35 2 35 35 0 33 2 35 35 35 33 0 35 -2 35 -35 l0 -35 75 0 75 0 0 -35 c0 -33
2 -35 35 -35 34 0 35 -1 35 -40 l0 -40 -70 0 -70 0 0 -35 c0 -34 -1 -35 -40
-35 -39 0 -40 1 -40 35 0 33 -2 35 -35 35 -34 0 -35 1 -35 40 0 39 -1 40 -35
40 l-35 0 0 -75 0 -75 70 0 70 0 0 -35 0 -35 75 0 75 0 0 35 c0 33 2 35 35 35
33 0 35 2 35 35 l0 35 75 0 75 0 0 -35 0 -35 110 0 110 0 0 -110 0 -110 -35 0
c-33 0 -35 2 -35 35 0 34 -1 35 -40 35 l-40 0 0 -70 0 -70 -70 0 -70 0 0 35
c0 33 2 35 35 35 33 0 35 2 35 35 0 33 -2 35 -35 35 -34 0 -35 1 -35 40 l0 40
-40 0 -40 0 0 -40 0 -40 -145 0 -145 0 0 40 0 40 -75 0 -75 0 0 35 c0 47 -19
46 -79 -5 -59 -50 -133 -79 -217 -87 -35 -3 -64 -10 -64 -14 0 -5 -16 -9 -35
-9 -33 0 -35 -2 -35 -35 l0 -35 70 0 70 0 0 -75 0 -75 -35 0 c-34 0 -35 1 -35
40 0 39 -1 40 -35 40 -34 0 -35 -1 -35 -40 l0 -40 -40 0 -40 0 0 -70 0 -70
-35 0 c-33 0 -35 2 -35 35 0 33 -2 35 -35 35 l-35 0 0 145 0 145 35 0 c33 0
35 -2 35 -35 0 -33 2 -35 35 -35 l35 0 0 73 c0 71 -1 72 -35 95 -34 22 -35 22
-35 2 0 -16 -7 -20 -35 -20 -33 0 -35 2 -35 34 0 28 4 35 21 38 l21 3 -20 25
-21 25 -1 -27 0 -28 -75 0 -75 0 0 -35 c0 -33 -2 -35 -35 -35 -33 0 -35 2 -35
35 0 34 -1 35 -40 35 l-40 0 0 -75 0 -75 75 0 75 0 0 -70 0 -70 -75 0 -75 0 0
-40 0 -40 110 0 110 0 0 -35 0 -35 -145 0 -145 0 0 35 c0 33 -2 35 -35 35 -34
0 -35 1 -35 40 0 39 1 40 35 40 l35 0 0 70 0 70 -35 0 -35 0 0 110 0 110 35 0
c34 0 35 1 35 40 0 39 1 40 35 40 34 0 35 -1 35 -40 l0 -40 110 0 110 0 0 75
c0 60 3 75 15 75 10 0 15 10 15 33 0 17 4 49 9 70 8 35 8 37 -15 37 -21 0 -24
-5 -24 -35 l0 -35 -110 0 -110 0 0 35 0 35 -110 0 -110 0 0 40 c0 39 -1 40
-35 40 -33 0 -35 2 -35 35 l0 35 110 0 110 0 0 -35 c0 -33 2 -35 35 -35 33 0
35 2 35 35 0 33 -2 35 -35 35 -33 0 -35 2 -35 35 l0 35 -110 0 -110 0 0 40 0
40 75 0 75 0 0 35 c0 33 2 35 35 35 33 0 35 -2 35 -35 0 -33 2 -35 35 -35 34
0 35 -1 35 -40 l0 -40 40 0 40 0 0 -110 0 -110 35 0 c34 0 35 1 35 40 0 39 1
40 35 40 33 0 35 2 35 35 l0 34 73 3 72 3 3 73 3 72 34 0 c33 0 35 2 35 35 0
34 1 35 40 35 39 0 40 -1 40 -35 0 -33 2 -35 35 -35 24 0 35 -5 35 -15 0 -10
11 -15 35 -15 24 0 35 5 35 15 0 12 15 15 75 15 l75 0 0 -40 c0 -39 1 -40 35
-40 30 0 35 -4 35 -22 1 -13 16 -41 35 -62 l35 -39 0 101 0 102 40 0 40 0 0
70 0 70 -40 0 -40 0 0 40 c0 39 -1 40 -35 40 -33 0 -35 2 -35 35 0 33 2 35 35
35 33 0 35 2 35 35 0 34 1 35 40 35 l40 0 0 40 c0 39 1 40 35 40 33 0 35 2 35
35 0 33 2 35 35 35 33 0 35 -2 35 -35 0 -34 1 -35 40 -35 39 0 40 1 40 35 0
34 -1 35 -40 35 -39 0 -40 1 -40 35 l0 35 -70 0 -70 0 0 40 0 40 -40 0 c-39 0
-40 1 -40 35 0 34 1 35 40 35 39 0 40 1 40 35 0 34 -1 35 -40 35 l-40 0 0 75
0 75 -70 0 -70 0 0 -35 c0 -34 -1 -35 -40 -35 -39 0 -40 1 -40 35 0 33 -2 35
-35 35 -33 0 -35 -2 -35 -35 l0 -35 -70 0 -70 0 0 35 0 35 -150 0 -150 0 0
-35 c0 -33 -2 -35 -35 -35 -33 0 -35 2 -35 35 0 33 -2 35 -35 35 -33 0 -35 -2
-35 -35z m440 -110 l0 -75 35 0 c33 0 35 2 35 35 0 33 2 35 35 35 34 0 35 1
35 40 0 39 1 40 35 40 l35 0 0 -75 0 -75 75 0 75 0 0 35 c0 33 2 35 35 35 33
0 35 -2 35 -35 0 -33 -2 -35 -35 -35 -33 0 -35 -2 -35 -35 0 -33 2 -35 35 -35
34 0 35 -1 35 -40 l0 -40 40 0 40 0 0 -70 0 -70 -40 0 c-39 0 -40 1 -40 35 0
33 -2 35 -35 35 l-35 0 0 -75 0 -75 -35 0 -35 0 0 -70 0 -70 35 0 c34 0 35 -1
35 -40 l0 -40 -75 0 -75 0 0 -35 c0 -33 -2 -35 -35 -35 -33 0 -35 2 -35 35 0
33 -2 35 -35 35 -33 0 -35 -2 -35 -35 0 -33 -2 -35 -35 -35 -33 0 -35 2 -35
35 0 34 -1 35 -40 35 l-40 0 0 75 0 75 -35 0 -35 0 0 -75 0 -75 -35 0 -35 0 0
75 0 75 -75 0 -75 0 0 -35 c0 -33 2 -35 35 -35 l35 0 0 -75 0 -75 75 0 75 0 0
-35 c0 -33 -2 -35 -35 -35 -34 0 -35 -1 -35 -40 l0 -40 -40 0 -40 0 0 40 0 40
-110 0 -110 0 0 35 c0 33 -2 35 -35 35 l-35 0 0 75 0 75 35 0 c33 0 35 2 35
35 l0 35 75 0 75 0 0 35 0 35 145 0 145 0 0 40 c0 39 -1 40 -35 40 l-35 0 0
70 0 70 -35 0 -35 0 0 -70 0 -70 -40 0 c-39 0 -40 1 -40 35 0 33 -2 35 -35 35
-33 0 -35 -2 -35 -35 0 -33 -2 -35 -35 -35 -34 0 -35 -1 -35 -40 l0 -40 -40 0
-40 0 0 40 0 40 40 0 c39 0 40 1 40 35 0 33 2 35 35 35 33 0 35 2 35 35 l0 35
75 0 75 0 0 75 0 75 -40 0 c-39 0 -40 1 -40 35 0 34 1 35 40 35 l40 0 0 40 0
40 110 0 110 0 0 -75z m-590 -480 c0 -33 -2 -35 -35 -35 -33 0 -35 2 -35 35 0
33 2 35 35 35 33 0 35 -2 35 -35z m-150 -70 c0 -34 1 -35 40 -35 l40 0 0 -75
0 -75 -75 0 -75 0 0 -35 0 -35 -75 0 -75 0 0 35 c0 33 -2 35 -35 35 l-35 0 0
75 0 75 75 0 75 0 0 35 0 35 70 0 70 0 0 -35z m1610 -75 c0 -39 -1 -40 -35
-40 -34 0 -35 1 -35 40 0 39 1 40 35 40 34 0 35 -1 35 -40z m-440 -145 c0 -33
-2 -35 -35 -35 -33 0 -35 2 -35 35 0 33 2 35 35 35 33 0 35 -2 35 -35z m-1240
-150 c0 -33 -2 -35 -35 -35 -33 0 -35 2 -35 35 0 33 2 35 35 35 33 0 35 -2 35
-35z m1460 -70 c0 -34 1 -35 40 -35 39 0 40 1 40 35 0 33 2 35 35 35 33 0 35
-2 35 -35 0 -33 2 -35 35 -35 34 0 35 -1 35 -40 l0 -40 40 0 c39 0 40 -1 40
-35 0 -33 2 -35 35 -35 33 0 35 -2 35 -35 0 -33 2 -35 35 -35 33 0 35 2 35 35
0 34 1 35 40 35 39 0 40 -1 40 -35 0 -33 2 -35 35 -35 33 0 35 -2 35 -35 0
-33 -2 -35 -35 -35 -34 0 -35 -1 -35 -40 l0 -40 -75 0 -75 0 0 75 0 75 -35 0
c-33 0 -35 2 -35 35 0 34 -1 35 -40 35 -39 0 -40 1 -40 35 0 33 -2 35 -35 35
-33 0 -35 -2 -35 -35 l0 -35 -75 0 -75 0 0 75 0 75 -35 0 c-33 0 -35 2 -35 35
0 33 2 35 35 35 33 0 35 -2 35 -35z m520 -75 l0 -40 -75 0 -75 0 0 40 0 40 75
0 75 0 0 -40z m-1690 -145 l0 -35 75 0 75 0 0 -35 0 -35 -75 0 -75 0 0 35 c0
33 -2 35 -35 35 -33 0 -35 2 -35 35 0 33 2 35 35 35 33 0 35 -2 35 -35z m-580
-145 l0 -40 -40 0 -40 0 0 40 0 40 40 0 40 0 0 -40z m360 -75 c0 -33 -2 -35
-35 -35 -33 0 -35 2 -35 35 0 33 2 35 35 35 33 0 35 -2 35 -35z m2050 0 c0
-33 -2 -35 -35 -35 -33 0 -35 2 -35 35 0 33 2 35 35 35 33 0 35 -2 35 -35z
m-2050 -145 c0 -39 -1 -40 -35 -40 -34 0 -35 1 -35 40 0 39 1 40 35 40 34 0
35 -1 35 -40z m520 0 l0 -40 -40 0 -40 0 0 40 0 40 40 0 40 0 0 -40z m430 -75
c0 -33 -2 -35 -35 -35 -33 0 -35 2 -35 35 0 33 2 35 35 35 33 0 35 -2 35 -35z
m150 0 l0 -35 75 0 75 0 0 35 c0 33 2 35 35 35 33 0 35 -2 35 -35 0 -33 -2
-35 -35 -35 -33 0 -35 -2 -35 -35 l0 -35 -75 0 -75 0 0 35 c0 33 -2 35 -35 35
-33 0 -35 2 -35 35 0 33 2 35 35 35 33 0 35 -2 35 -35z m590 0 c0 -34 -1 -35
-40 -35 -39 0 -40 -1 -40 -35 0 -34 1 -35 40 -35 l40 0 0 -75 0 -75 -75 0 -75
0 0 110 0 110 35 0 c33 0 35 2 35 35 0 34 1 35 40 35 39 0 40 -1 40 -35z
m-1690 -220 c0 -33 -2 -35 -35 -35 -33 0 -35 2 -35 35 0 33 2 35 35 35 33 0
35 -2 35 -35z m810 0 c0 -33 2 -35 35 -35 33 0 35 -2 35 -35 0 -33 -2 -35 -35
-35 -33 0 -35 2 -35 35 0 33 -2 35 -35 35 -33 0 -35 2 -35 35 0 33 2 35 35 35
33 0 35 -2 35 -35z m660 0 c0 -34 -1 -35 -40 -35 -39 0 -40 -1 -40 -35 0 -33
-2 -35 -35 -35 -33 0 -35 2 -35 35 0 33 -2 35 -35 35 -33 0 -35 -2 -35 -35 l0
-35 -75 0 -75 0 0 35 0 35 75 0 75 0 0 35 0 35 110 0 110 0 0 -35z m-950 -70
c0 -33 2 -35 35 -35 34 0 35 -1 35 -40 0 -39 -1 -40 -35 -40 l-35 0 0 -70 0
-70 -40 0 c-39 0 -40 1 -40 35 0 33 -2 35 -35 35 l-35 0 0 -75 0 -75 -35 0
c-34 0 -35 1 -35 40 l0 40 -40 0 -40 0 0 -40 c0 -39 -1 -40 -35 -40 -34 0 -35
1 -35 40 0 39 1 40 35 40 33 0 35 2 35 35 0 33 -2 35 -35 35 l-35 0 0 75 0 75
35 0 c34 0 35 -1 35 -40 l0 -40 40 0 40 0 0 40 c0 39 1 40 35 40 34 0 35 -1
35 -40 0 -39 1 -40 35 -40 l35 0 0 75 0 75 40 0 c39 0 40 -1 40 -35z m220 -75
c0 -39 1 -40 35 -40 33 0 35 -2 35 -35 0 -33 -2 -35 -35 -35 -33 0 -35 2 -35
35 0 34 -1 35 -40 35 l-40 0 0 40 0 40 40 0 40 0 0 -40z m70 -440 c0 -39 -1
-40 -35 -40 -34 0 -35 1 -35 40 0 39 1 40 35 40 34 0 35 -1 35 -40z"/>
<path d="M1170 2675 c0 -33 2 -35 35 -35 33 0 35 -2 35 -35 l0 -35 75 0 75 0
0 35 0 35 -75 0 -75 0 0 35 c0 33 -2 35 -35 35 -33 0 -35 -2 -35 -35z"/>
<path d="M1460 2605 c0 -33 2 -35 35 -35 34 0 35 -1 35 -40 0 -39 1 -40 35
-40 l35 0 0 -70 0 -70 40 0 c39 0 40 1 40 35 0 33 2 35 35 35 33 0 35 2 35 35
0 33 -2 35 -35 35 -34 0 -35 1 -35 40 l0 40 -40 0 c-39 0 -40 1 -40 35 l0 35
-70 0 -70 0 0 -35z"/>
<path d="M1310 2385 c0 -34 1 -35 40 -35 l40 0 0 -40 c0 -39 1 -40 35 -40 33
0 35 -2 35 -35 0 -33 -2 -35 -35 -35 -33 0 -35 -2 -35 -35 l0 -35 105 0 105 0
0 35 c0 33 -2 35 -35 35 -33 0 -35 2 -35 35 0 33 -2 35 -35 35 -34 0 -35 1
-35 40 0 39 1 40 35 40 33 0 35 2 35 35 0 33 -2 35 -35 35 -33 0 -35 -2 -35
-35 0 -33 -2 -35 -35 -35 -33 0 -35 2 -35 35 0 34 -1 35 -40 35 -39 0 -40 -1
-40 -35z"/>
<path d="M870 2090 l0 -40 40 0 c39 0 40 -1 40 -35 0 -33 2 -35 35 -35 l35 0
0 75 0 75 -75 0 -75 0 0 -40z"/>
<path d="M580 2090 c0 -39 1 -40 35 -40 34 0 35 1 35 40 0 39 -1 40 -35 40
-34 0 -35 -1 -35 -40z"/>
<path d="M950 625 c0 -33 2 -35 35 -35 33 0 35 2 35 35 0 33 -2 35 -35 35 -33
0 -35 -2 -35 -35z"/>
<path d="M1900 2825 l0 -35 180 0 180 0 0 35 0 35 -180 0 -180 0 0 -35z"/>
<path d="M2352 2848 c-17 -17 -17 -469 0 -486 9 -9 76 -12 238 -12 l227 0 17
33 c15 28 17 58 14 238 -2 156 -6 210 -17 222 -12 15 -42 17 -240 17 -163 0
-230 -3 -239 -12z m392 -64 c14 -5 16 -30 16 -174 0 -144 -2 -169 -16 -174
-31 -12 -309 -7 -322 6 -8 8 -12 60 -12 168 0 108 4 160 12 168 13 13 291 18
322 6z"/>
<path d="M2487 2703 c-10 -9 -8 -175 1 -191 6 -9 34 -12 103 -10 l94 3 3 103
3 102 -99 0 c-54 0 -102 -3 -105 -7z"/>
<path d="M2040 2675 c0 -33 -2 -35 -35 -35 -33 0 -35 -2 -35 -35 0 -33 2 -35
35 -35 33 0 35 2 35 35 0 34 1 35 40 35 l40 0 0 -75 0 -75 35 0 35 0 0 75 0
75 -35 0 c-33 0 -35 2 -35 35 0 34 -1 35 -40 35 -39 0 -40 -1 -40 -35z"/>
<path d="M2190 2385 c0 -33 2 -35 35 -35 33 0 35 2 35 35 0 33 -2 35 -35 35
-33 0 -35 -2 -35 -35z"/>
<path d="M2700 2200 l0 -70 40 0 40 0 0 70 0 70 -40 0 -40 0 0 -70z"/>
<path d="M140 2165 c0 -33 2 -35 35 -35 33 0 35 2 35 35 0 33 -2 35 -35 35
-33 0 -35 -2 -35 -35z"/>
<path d="M1399 1807 c-84 -32 -148 -88 -191 -170 -19 -35 -23 -58 -23 -137 0
-86 3 -100 29 -148 34 -60 85 -111 148 -144 36 -19 58 -23 138 -23 80 0 102 4
138 23 63 33 114 84 148 144 26 48 29 62 29 148 0 106 -15 147 -80 219 -57 63
-127 94 -220 98 -50 2 -93 -2 -116 -10z m121 -152 c34 -18 70 -61 70 -86 0
-11 10 -20 29 -24 36 -8 77 -47 84 -80 2 -14 -4 -40 -14 -58 -10 -17 -21 -39
-24 -48 -5 -13 -18 -15 -58 -12 -72 6 -106 21 -128 57 -10 17 -19 25 -19 19 0
-9 -16 -13 -44 -13 -25 0 -48 -4 -51 -10 -11 -18 -27 -11 -22 10 3 10 -2 25
-10 31 -67 56 -51 173 28 212 42 21 121 22 159 2z"/>
<path d="M1377 1594 c-8 -8 1 -24 14 -24 5 0 9 7 9 15 0 15 -12 20 -23 9z"/>
<path d="M1480 1585 c0 -9 5 -15 11 -13 6 2 11 8 11 13 0 5 -5 11 -11 13 -6 2
-11 -4 -11 -13z"/>
<path d="M1610 1490 c0 -5 5 -10 11 -10 5 0 7 5 4 10 -3 6 -8 10 -11 10 -2 0
-4 -4 -4 -10z"/>
<path d="M430 1505 c0 -34 1 -35 40 -35 39 0 40 1 40 35 0 34 -1 35 -40 35
-39 0 -40 -1 -40 -35z"/>
<path d="M210 1105 l0 -75 -35 0 c-33 0 -35 -2 -35 -35 l0 -35 75 0 75 0 0
-40 c0 -39 1 -40 35 -40 34 0 35 1 35 40 0 39 -1 40 -35 40 l-35 0 0 110 0
110 -40 0 -40 0 0 -75z"/>
<path d="M140 775 l0 -35 145 0 145 0 0 35 0 35 -145 0 -145 0 0 -35z"/>
<path d="M152 648 c-9 -9 -12 -76 -12 -239 0 -224 0 -228 22 -243 19 -13 59
-16 233 -16 278 0 255 -24 255 259 0 127 -4 220 -10 232 -10 18 -24 19 -243
19 -168 0 -236 -3 -245 -12z m406 -70 c17 -17 17 -319 0 -336 -13 -13 -291
-18 -322 -6 -14 5 -16 30 -16 174 0 125 3 170 13 173 28 12 313 7 325 -5z"/>
<path d="M297 513 c-4 -3 -7 -51 -7 -105 l0 -99 103 3 102 3 3 80 c5 129 8
125 -102 125 -51 0 -96 -3 -99 -7z"/>
<path d="M2480 555 c0 -33 -2 -35 -35 -35 -34 0 -35 -1 -35 -40 0 -39 1 -40
35 -40 33 0 35 -2 35 -35 0 -33 -2 -35 -35 -35 l-35 0 0 -75 0 -75 35 0 c33 0
35 -2 35 -35 0 -34 1 -35 40 -35 39 0 40 1 40 35 0 34 -1 35 -40 35 l-40 0 0
75 0 75 75 0 75 0 0 -75 0 -75 35 0 c33 0 35 -2 35 -35 l0 -35 75 0 75 0 0 35
c0 33 -2 35 -35 35 l-35 0 0 75 0 75 -75 0 -75 0 0 35 c0 33 2 35 35 35 34 0
35 1 35 40 l0 40 40 0 40 0 0 -40 c0 -39 1 -40 35 -40 34 0 35 1 35 40 0 39
-1 40 -35 40 -33 0 -35 2 -35 35 l0 35 -75 0 -75 0 0 -35 c0 -33 -2 -35 -35
-35 -33 0 -35 2 -35 35 0 34 -1 35 -40 35 -39 0 -40 -1 -40 -35z"/>
<path d="M1900 480 c0 -39 1 -40 35 -40 34 0 35 1 35 40 0 39 -1 40 -35 40
-34 0 -35 -1 -35 -40z"/>
<path d="M1680 295 l0 -75 -40 0 c-39 0 -40 -1 -40 -35 l0 -35 75 0 75 0 0
110 0 110 -35 0 -35 0 0 -75z"/>
<path d="M2260 260 l0 -110 40 0 40 0 0 110 0 110 -40 0 -40 0 0 -110z"/>
<path d="M1900 260 l0 -40 -40 0 c-39 0 -40 -1 -40 -35 l0 -35 110 0 110 0 0
35 c0 33 -2 35 -35 35 -34 0 -35 1 -35 40 0 39 -1 40 -35 40 -34 0 -35 -1 -35
-40z"/>
<path d="M2120 225 l0 -75 35 0 35 0 0 75 0 75 -35 0 -35 0 0 -75z"/>
</g>
</svg>
